{
	"asset":{
		"generator":"Khronos glTF Blender I/O v3.5.30",
		"version":"2.0"
	},
	"scene":0,
	"scenes":[
		{
			"name":"Scene",
			"nodes":[
				4
			]
		}
	],
	"nodes":[
		{
			"mesh":0,
			"name":"FL",
			"translation":[
				7.754171848297119,
				11.098396301269531,
				1.6632806062698364
			]
		},
		{
			"mesh":1,
			"name":"FR",
			"translation":[
				-7.914581775665283,
				11.098401069641113,
				1.66327965259552
			]
		},
		{
			"mesh":2,
			"name":"RL",
			"translation":[
				7.878416061401367,
				-11.532519340515137,
				1.4708223342895508
			]
		},
		{
			"mesh":3,
			"name":"RR",
			"translation":[
				-8.03877067565918,
				-11.532519340515137,
				1.4708223342895508
			]
		},
		{
			"children":[
				0,
				1,
				2,
				3
			],
			"mesh":4,
			"name":"Body",
			"rotation":[
				0.70710688829422,
				0,
				0,
				0.7071066498756409
			],
			"translation":[
				0,
				4.465173244476318,
				0
			]
		}
	],
	"materials":[
		{
			"doubleSided":true,
			"name":"Carbon.001",
			"pbrMetallicRoughness":{
				"baseColorFactor":[
					0,
					0,
					0,
					1
				],
				"metallicFactor":0,
				"roughnessFactor":0.5
			}
		},
		{
			"doubleSided":true,
			"name":"Carbon.003",
			"pbrMetallicRoughness":{
				"baseColorFactor":[
					0.010022825561463833,
					0.010022825561463833,
					0.010022825561463833,
					1
				],
				"metallicFactor":0,
				"roughnessFactor":0.5
			}
		},
		{
			"doubleSided":true,
			"name":"Window Glass",
			"pbrMetallicRoughness":{}
		},
		{
			"doubleSided":true,
			"name":"Carbon",
			"pbrMetallicRoughness":{
				"baseColorFactor":[
					0.010022825561463833,
					0.010022825561463833,
					0.010022825561463833,
					1
				],
				"metallicFactor":0,
				"roughnessFactor":0.5
			}
		},
		{
			"doubleSided":true,
			"name":"Carbon.002",
			"pbrMetallicRoughness":{
				"baseColorFactor":[
					0.03310476616024971,
					0.03310476616024971,
					0.03310476616024971,
					1
				],
				"metallicFactor":0,
				"roughnessFactor":0.5
			}
		},
		{
			"doubleSided":true,
			"name":"Car Texture",
			"pbrMetallicRoughness":{
				"baseColorFactor":[
					0.01786760799586773,
					0.01786760799586773,
					0.01786760799586773,
					1
				],
				"metallicFactor":0.30927833914756775,
				"roughnessFactor":0
			}
		},
		{
			"doubleSided":true,
			"name":"Rear Lights",
			"pbrMetallicRoughness":{}
		}
	],
	"meshes":[
		{
			"name":"Koenisegg one.436",
			"primitives":[
				{
					"attributes":{
						"POSITION":0,
						"TEXCOORD_0":1,
						"NORMAL":2
					},
					"indices":3,
					"material":0
				}
			]
		},
		{
			"name":"Koenisegg one.429",
			"primitives":[
				{
					"attributes":{
						"POSITION":4,
						"TEXCOORD_0":5,
						"NORMAL":6
					},
					"indices":7,
					"material":0
				}
			]
		},
		{
			"name":"Koenisegg one.500",
			"primitives":[
				{
					"attributes":{
						"POSITION":8,
						"TEXCOORD_0":9,
						"NORMAL":10
					},
					"indices":11,
					"material":0
				}
			]
		},
		{
			"name":"Koenisegg one.501",
			"primitives":[
				{
					"attributes":{
						"POSITION":12,
						"TEXCOORD_0":13,
						"NORMAL":14
					},
					"indices":7,
					"material":0
				}
			]
		},
		{
			"name":"Koenisegg one.341",
			"primitives":[
				{
					"attributes":{
						"POSITION":15,
						"TEXCOORD_0":16,
						"NORMAL":17
					},
					"indices":18,
					"material":1
				},
				{
					"attributes":{
						"POSITION":19,
						"TEXCOORD_0":20,
						"NORMAL":21
					},
					"indices":22,
					"material":2
				},
				{
					"attributes":{
						"POSITION":23,
						"TEXCOORD_0":24,
						"NORMAL":25
					},
					"indices":26,
					"material":3
				},
				{
					"attributes":{
						"POSITION":27,
						"TEXCOORD_0":28,
						"NORMAL":29
					},
					"indices":30,
					"material":4
				},
				{
					"attributes":{
						"POSITION":31,
						"TEXCOORD_0":32,
						"NORMAL":33
					},
					"indices":34,
					"material":5
				},
				{
					"attributes":{
						"POSITION":35,
						"TEXCOORD_0":36,
						"NORMAL":37
					},
					"indices":38,
					"material":0
				},
				{
					"attributes":{
						"POSITION":39,
						"TEXCOORD_0":40,
						"NORMAL":41
					},
					"indices":42,
					"material":6
				}
			]
		}
	],
	"accessors":[
		{
			"bufferView":0,
			"componentType":5126,
			"count":3506,
			"max":[
				0.5109038352966309,
				3.1489992141723633,
				2.870856285095215
			],
			"min":[
				-1.725639820098877,
				-2.3981313705444336,
				-2.6653265953063965
			],
			"type":"VEC3"
		},
		{
			"bufferView":1,
			"componentType":5126,
			"count":3506,
			"type":"VEC2"
		},
		{
			"bufferView":2,
			"componentType":5126,
			"count":3506,
			"type":"VEC3"
		},
		{
			"bufferView":3,
			"componentType":5123,
			"count":11928,
			"type":"SCALAR"
		},
		{
			"bufferView":4,
			"componentType":5126,
			"count":3506,
			"max":[
				1.7256684303283691,
				3.1489944458007812,
				2.8708574771881104
			],
			"min":[
				-0.5108761787414551,
				-2.3981361389160156,
				-2.665325403213501
			],
			"type":"VEC3"
		},
		{
			"bufferView":5,
			"componentType":5126,
			"count":3506,
			"type":"VEC2"
		},
		{
			"bufferView":6,
			"componentType":5126,
			"count":3506,
			"type":"VEC3"
		},
		{
			"bufferView":7,
			"componentType":5123,
			"count":11928,
			"type":"SCALAR"
		},
		{
			"bufferView":8,
			"componentType":5126,
			"count":3506,
			"max":[
				0.5031194686889648,
				3.315380096435547,
				3.0225510597229004
			],
			"min":[
				-1.696235179901123,
				-2.524886131286621,
				-2.8061881065368652
			],
			"type":"VEC3"
		},
		{
			"bufferView":9,
			"componentType":5126,
			"count":3506,
			"type":"VEC2"
		},
		{
			"bufferView":10,
			"componentType":5126,
			"count":3506,
			"type":"VEC3"
		},
		{
			"bufferView":11,
			"componentType":5123,
			"count":11928,
			"type":"SCALAR"
		},
		{
			"bufferView":12,
			"componentType":5126,
			"count":3506,
			"max":[
				1.69620943069458,
				3.315380096435547,
				3.0225510597229004
			],
			"min":[
				-0.5031471252441406,
				-2.524886131286621,
				-2.8061881065368652
			],
			"type":"VEC3"
		},
		{
			"bufferView":13,
			"componentType":5126,
			"count":3506,
			"type":"VEC2"
		},
		{
			"bufferView":14,
			"componentType":5126,
			"count":3506,
			"type":"VEC3"
		},
		{
			"bufferView":15,
			"componentType":5126,
			"count":7842,
			"max":[
				9.271573066711426,
				19.490196228027344,
				3.5441935062408447
			],
			"min":[
				-9.431955337524414,
				-18.699337005615234,
				-4.690749645233154
			],
			"type":"VEC3"
		},
		{
			"bufferView":16,
			"componentType":5126,
			"count":7842,
			"type":"VEC2"
		},
		{
			"bufferView":17,
			"componentType":5126,
			"count":7842,
			"type":"VEC3"
		},
		{
			"bufferView":18,
			"componentType":5123,
			"count":29472,
			"type":"SCALAR"
		},
		{
			"bufferView":19,
			"componentType":5126,
			"count":391,
			"max":[
				7.324506759643555,
				17.966371536254883,
				0.4046812057495117
			],
			"min":[
				-7.484889984130859,
				-16.225187301635742,
				-4.2961039543151855
			],
			"type":"VEC3"
		},
		{
			"bufferView":20,
			"componentType":5126,
			"count":391,
			"type":"VEC2"
		},
		{
			"bufferView":21,
			"componentType":5126,
			"count":391,
			"type":"VEC3"
		},
		{
			"bufferView":22,
			"componentType":5123,
			"count":1482,
			"type":"SCALAR"
		},
		{
			"bufferView":23,
			"componentType":5126,
			"count":226,
			"max":[
				8.341429710388184,
				18.282703399658203,
				3.329857349395752
			],
			"min":[
				-8.501809120178223,
				-16.942148208618164,
				-1.3078927993774414
			],
			"type":"VEC3"
		},
		{
			"bufferView":24,
			"componentType":5126,
			"count":226,
			"type":"VEC2"
		},
		{
			"bufferView":25,
			"componentType":5126,
			"count":226,
			"type":"VEC3"
		},
		{
			"bufferView":26,
			"componentType":5123,
			"count":546,
			"type":"SCALAR"
		},
		{
			"bufferView":27,
			"componentType":5126,
			"count":6372,
			"max":[
				25.99228858947754,
				12.52627182006836,
				3.123823404312134
			],
			"min":[
				-7.6422810554504395,
				-3.4911036491394043,
				-5.045899868011475
			],
			"type":"VEC3"
		},
		{
			"bufferView":28,
			"componentType":5126,
			"count":6372,
			"type":"VEC2"
		},
		{
			"bufferView":29,
			"componentType":5126,
			"count":6372,
			"type":"VEC3"
		},
		{
			"bufferView":30,
			"componentType":5123,
			"count":23184,
			"type":"SCALAR"
		},
		{
			"bufferView":31,
			"componentType":5126,
			"count":7180,
			"max":[
				8.448814392089844,
				18.979480743408203,
				3.541602373123169
			],
			"min":[
				-8.609195709228516,
				-17.488969802856445,
				-5.538262844085693
			],
			"type":"VEC3"
		},
		{
			"bufferView":32,
			"componentType":5126,
			"count":7180,
			"type":"VEC2"
		},
		{
			"bufferView":33,
			"componentType":5126,
			"count":7180,
			"type":"VEC3"
		},
		{
			"bufferView":34,
			"componentType":5123,
			"count":24207,
			"type":"SCALAR"
		},
		{
			"bufferView":35,
			"componentType":5126,
			"count":296,
			"max":[
				3.3616690635681152,
				18.320268630981445,
				0.2819032669067383
			],
			"min":[
				-3.295867919921875,
				-11.677349090576172,
				-3.8198723793029785
			],
			"type":"VEC3"
		},
		{
			"bufferView":36,
			"componentType":5126,
			"count":296,
			"type":"VEC2"
		},
		{
			"bufferView":37,
			"componentType":5126,
			"count":296,
			"type":"VEC3"
		},
		{
			"bufferView":38,
			"componentType":5123,
			"count":1344,
			"type":"SCALAR"
		},
		{
			"bufferView":39,
			"componentType":5126,
			"count":163,
			"max":[
				7.132745742797852,
				-14.662364959716797,
				-1.2763514518737793
			],
			"min":[
				-7.27186918258667,
				-16.225187301635742,
				-2.1737194061279297
			],
			"type":"VEC3"
		},
		{
			"bufferView":40,
			"componentType":5126,
			"count":163,
			"type":"VEC2"
		},
		{
			"bufferView":41,
			"componentType":5126,
			"count":163,
			"type":"VEC3"
		},
		{
			"bufferView":42,
			"componentType":5123,
			"count":726,
			"type":"SCALAR"
		}
	],
	"bufferViews":[
		{
			"buffer":0,
			"byteLength":42072,
			"byteOffset":0,
			"target":34962
		},
		{
			"buffer":0,
			"byteLength":28048,
			"byteOffset":42072,
			"target":34962
		},
		{
			"buffer":0,
			"byteLength":42072,
			"byteOffset":70120,
			"target":34962
		},
		{
			"buffer":0,
			"byteLength":23856,
			"byteOffset":112192,
			"target":34963
		},
		{
			"buffer":0,
			"byteLength":42072,
			"byteOffset":136048,
			"target":34962
		},
		{
			"buffer":0,
			"byteLength":28048,
			"byteOffset":178120,
			"target":34962
		},
		{
			"buffer":0,
			"byteLength":42072,
			"byteOffset":206168,
			"target":34962
		},
		{
			"buffer":0,
			"byteLength":23856,
			"byteOffset":248240,
			"target":34963
		},
		{
			"buffer":0,
			"byteLength":42072,
			"byteOffset":272096,
			"target":34962
		},
		{
			"buffer":0,
			"byteLength":28048,
			"byteOffset":314168,
			"target":34962
		},
		{
			"buffer":0,
			"byteLength":42072,
			"byteOffset":342216,
			"target":34962
		},
		{
			"buffer":0,
			"byteLength":23856,
			"byteOffset":384288,
			"target":34963
		},
		{
			"buffer":0,
			"byteLength":42072,
			"byteOffset":408144,
			"target":34962
		},
		{
			"buffer":0,
			"byteLength":28048,
			"byteOffset":450216,
			"target":34962
		},
		{
			"buffer":0,
			"byteLength":42072,
			"byteOffset":478264,
			"target":34962
		},
		{
			"buffer":0,
			"byteLength":94104,
			"byteOffset":520336,
			"target":34962
		},
		{
			"buffer":0,
			"byteLength":62736,
			"byteOffset":614440,
			"target":34962
		},
		{
			"buffer":0,
			"byteLength":94104,
			"byteOffset":677176,
			"target":34962
		},
		{
			"buffer":0,
			"byteLength":58944,
			"byteOffset":771280,
			"target":34963
		},
		{
			"buffer":0,
			"byteLength":4692,
			"byteOffset":830224,
			"target":34962
		},
		{
			"buffer":0,
			"byteLength":3128,
			"byteOffset":834916,
			"target":34962
		},
		{
			"buffer":0,
			"byteLength":4692,
			"byteOffset":838044,
			"target":34962
		},
		{
			"buffer":0,
			"byteLength":2964,
			"byteOffset":842736,
			"target":34963
		},
		{
			"buffer":0,
			"byteLength":2712,
			"byteOffset":845700,
			"target":34962
		},
		{
			"buffer":0,
			"byteLength":1808,
			"byteOffset":848412,
			"target":34962
		},
		{
			"buffer":0,
			"byteLength":2712,
			"byteOffset":850220,
			"target":34962
		},
		{
			"buffer":0,
			"byteLength":1092,
			"byteOffset":852932,
			"target":34963
		},
		{
			"buffer":0,
			"byteLength":76464,
			"byteOffset":854024,
			"target":34962
		},
		{
			"buffer":0,
			"byteLength":50976,
			"byteOffset":930488,
			"target":34962
		},
		{
			"buffer":0,
			"byteLength":76464,
			"byteOffset":981464,
			"target":34962
		},
		{
			"buffer":0,
			"byteLength":46368,
			"byteOffset":1057928,
			"target":34963
		},
		{
			"buffer":0,
			"byteLength":86160,
			"byteOffset":1104296,
			"target":34962
		},
		{
			"buffer":0,
			"byteLength":57440,
			"byteOffset":1190456,
			"target":34962
		},
		{
			"buffer":0,
			"byteLength":86160,
			"byteOffset":1247896,
			"target":34962
		},
		{
			"buffer":0,
			"byteLength":48414,
			"byteOffset":1334056,
			"target":34963
		},
		{
			"buffer":0,
			"byteLength":3552,
			"byteOffset":1382472,
			"target":34962
		},
		{
			"buffer":0,
			"byteLength":2368,
			"byteOffset":1386024,
			"target":34962
		},
		{
			"buffer":0,
			"byteLength":3552,
			"byteOffset":1388392,
			"target":34962
		},
		{
			"buffer":0,
			"byteLength":2688,
			"byteOffset":1391944,
			"target":34963
		},
		{
			"buffer":0,
			"byteLength":1956,
			"byteOffset":1394632,
			"target":34962
		},
		{
			"buffer":0,
			"byteLength":1304,
			"byteOffset":1396588,
			"target":34962
		},
		{
			"buffer":0,
			"byteLength":1956,
			"byteOffset":1397892,
			"target":34962
		},
		{
			"buffer":0,
			"byteLength":1452,
			"byteOffset":1399848,
			"target":34963
		}
	],
	"buffers":[
		{
			"byteLength":1401300,
			"uri":"data:application/octet-stream;base64,"
		}
	]
}
